# xmcd CD database file
#
# Track frame offsets:
#	150
#	19177
#	36181
#	51012
#	70226
#	78425
#	94141
#	113874
#	130210
#	145034
#	162224
#	176675
#
# Disc length: 2592 seconds
#
# Revision: 2
# Processed by: cddbd v1.5PL3 Copyright (c) Steve Scherf et al.
# Submitted via: jetAudio 5
#
DISCID=9d0a1e0c
DTITLE=Miguel Bicca - Meus Rios
DYEAR=1900
DGENRE=
TTITLE0=Águas do Piquiri
TTITLE1=Rio de Infância
TTITLE2=Do Cerne da Terra
TTITLE3=Falquejando
TTITLE4=Romance das Casa Brancas
TTITLE5=Sol, Águas e Pedras
TTITLE6=Madrugando Outra Vez
TTITLE7=Costeiro
TTITLE8=Atirado às Traças
TTITLE9=Janaina
TTITLE10=Testemunha
TTITLE11=O Guassupiano
EXTD=
EXTT0=
EXTT1=
EXTT2=
EXTT3=
EXTT4=
EXTT5=
EXTT6=
EXTT7=
EXTT8=
EXTT9=
EXTT10=
EXTT11=
PLAYORDER=
